<svg id="visual" viewBox="0 0 900 600" width="900" height="600" xmlns="http://www.w3.org/2000/svg" xmlns:xlink="http://www.w3.org/1999/xlink" version="1.1"><g stroke-width="1" stroke-linejoin="bevel"><path d="M388 329L394 224L295 307Z" fill="#8e1553" stroke="#8e1553"></path><path d="M394 224L332 192L295 307Z" fill="#59093a" stroke="#59093a"></path><path d="M388 329L488 232L394 224Z" fill="#c62368" stroke="#c62368"></path><path d="M393 97L309 111L332 192Z" fill="#80124d" stroke="#80124d"></path><path d="M274 422L379 427L388 329Z" fill="#b81f63" stroke="#b81f63"></path><path d="M388 329L533 260L488 232Z" fill="#4d0633" stroke="#4d0633"></path><path d="M332 192L196 273L295 307Z" fill="#660c40" stroke="#660c40"></path><path d="M295 307L274 422L388 329Z" fill="#8e1553" stroke="#8e1553"></path><path d="M180 412L274 422L295 307Z" fill="#9b1859" stroke="#9b1859"></path><path d="M393 97L332 192L394 224Z" fill="#4d0633" stroke="#4d0633"></path><path d="M332 192L181 185L196 273Z" fill="#80124d" stroke="#80124d"></path><path d="M491 398L533 260L388 329Z" fill="#4d0633" stroke="#4d0633"></path><path d="M488 232L393 97L394 224Z" fill="#730f47" stroke="#730f47"></path><path d="M475 64L393 97L488 232Z" fill="#59093a" stroke="#59093a"></path><path d="M379 427L491 398L388 329Z" fill="#b81f63" stroke="#b81f63"></path><path d="M309 111L181 185L332 192Z" fill="#4d0633" stroke="#4d0633"></path><path d="M308 530L419 469L379 427Z" fill="#c62368" stroke="#c62368"></path><path d="M379 427L419 469L491 398Z" fill="#4d0633" stroke="#4d0633"></path><path d="M181 185L137 260L196 273Z" fill="#a91c5e" stroke="#a91c5e"></path><path d="M196 273L180 412L295 307Z" fill="#80124d" stroke="#80124d"></path><path d="M137 260L180 412L196 273Z" fill="#4d0633" stroke="#4d0633"></path><path d="M274 422L308 530L379 427Z" fill="#80124d" stroke="#80124d"></path><path d="M180 412L233 464L274 422Z" fill="#660c40" stroke="#660c40"></path><path d="M195 0L192 91L309 111Z" fill="#c62368" stroke="#c62368"></path><path d="M309 111L192 91L181 185Z" fill="#80124d" stroke="#80124d"></path><path d="M181 185L73 201L137 260Z" fill="#41042c" stroke="#41042c"></path><path d="M605 177L475 64L488 232Z" fill="#80124d" stroke="#80124d"></path><path d="M393 97L337 0L309 111Z" fill="#a91c5e" stroke="#a91c5e"></path><path d="M491 398L600 312L533 260Z" fill="#660c40" stroke="#660c40"></path><path d="M533 260L605 177L488 232Z" fill="#59093a" stroke="#59093a"></path><path d="M566 415L600 312L491 398Z" fill="#c62368" stroke="#c62368"></path><path d="M533 524L566 415L491 398Z" fill="#b81f63" stroke="#b81f63"></path><path d="M233 464L308 530L274 422Z" fill="#c62368" stroke="#c62368"></path><path d="M419 469L533 524L491 398Z" fill="#b81f63" stroke="#b81f63"></path><path d="M600 312L605 177L533 260Z" fill="#a91c5e" stroke="#a91c5e"></path><path d="M421 0L337 0L393 97Z" fill="#9b1859" stroke="#9b1859"></path><path d="M192 91L126 112L181 185Z" fill="#730f47" stroke="#730f47"></path><path d="M195 0L126 112L192 91Z" fill="#8e1553" stroke="#8e1553"></path><path d="M475 64L421 0L393 97Z" fill="#41042c" stroke="#41042c"></path><path d="M465 0L421 0L475 64Z" fill="#80124d" stroke="#80124d"></path><path d="M126 112L73 201L181 185Z" fill="#660c40" stroke="#660c40"></path><path d="M137 260L85 422L180 412Z" fill="#b81f63" stroke="#b81f63"></path><path d="M579 0L465 0L475 64Z" fill="#b81f63" stroke="#b81f63"></path><path d="M0 274L85 422L137 260Z" fill="#41042c" stroke="#41042c"></path><path d="M180 412L113 478L233 464Z" fill="#4d0633" stroke="#4d0633"></path><path d="M222 600L279 600L308 530Z" fill="#a91c5e" stroke="#a91c5e"></path><path d="M399 600L533 524L419 469Z" fill="#b81f63" stroke="#b81f63"></path><path d="M566 415L677 411L600 312Z" fill="#4d0633" stroke="#4d0633"></path><path d="M85 422L113 478L180 412Z" fill="#59093a" stroke="#59093a"></path><path d="M337 0L195 0L309 111Z" fill="#c62368" stroke="#c62368"></path><path d="M279 600L399 600L308 530Z" fill="#730f47" stroke="#730f47"></path><path d="M308 530L399 600L419 469Z" fill="#660c40" stroke="#660c40"></path><path d="M569 600L609 481L533 524Z" fill="#9b1859" stroke="#9b1859"></path><path d="M533 524L609 481L566 415Z" fill="#a91c5e" stroke="#a91c5e"></path><path d="M712 267L667 174L605 177Z" fill="#9b1859" stroke="#9b1859"></path><path d="M712 267L605 177L600 312Z" fill="#8e1553" stroke="#8e1553"></path><path d="M605 177L635 63L475 64Z" fill="#a91c5e" stroke="#a91c5e"></path><path d="M222 600L308 530L233 464Z" fill="#b81f63" stroke="#b81f63"></path><path d="M113 478L222 600L233 464Z" fill="#c62368" stroke="#c62368"></path><path d="M0 220L0 274L73 201Z" fill="#80124d" stroke="#80124d"></path><path d="M73 201L0 274L137 260Z" fill="#4d0633" stroke="#4d0633"></path><path d="M85 422L0 491L113 478Z" fill="#80124d" stroke="#80124d"></path><path d="M0 220L73 201L0 112Z" fill="#660c40" stroke="#660c40"></path><path d="M609 481L677 411L566 415Z" fill="#4d0633" stroke="#4d0633"></path><path d="M681 132L635 63L605 177Z" fill="#730f47" stroke="#730f47"></path><path d="M0 112L73 201L126 112Z" fill="#660c40" stroke="#660c40"></path><path d="M635 63L579 0L475 64Z" fill="#8e1553" stroke="#8e1553"></path><path d="M667 174L681 132L605 177Z" fill="#59093a" stroke="#59093a"></path><path d="M765 88L681 132L814 160Z" fill="#4d0633" stroke="#4d0633"></path><path d="M677 411L712 267L600 312Z" fill="#4d0633" stroke="#4d0633"></path><path d="M399 600L514 600L533 524Z" fill="#9b1859" stroke="#9b1859"></path><path d="M609 481L710 460L677 411Z" fill="#b81f63" stroke="#b81f63"></path><path d="M0 274L0 402L85 422Z" fill="#8e1553" stroke="#8e1553"></path><path d="M113 478L63 600L222 600Z" fill="#c62368" stroke="#c62368"></path><path d="M68 0L0 112L126 112Z" fill="#80124d" stroke="#80124d"></path><path d="M514 600L569 600L533 524Z" fill="#8e1553" stroke="#8e1553"></path><path d="M195 0L68 0L126 112Z" fill="#730f47" stroke="#730f47"></path><path d="M700 600L710 460L609 481Z" fill="#59093a" stroke="#59093a"></path><path d="M677 411L818 334L712 267Z" fill="#4d0633" stroke="#4d0633"></path><path d="M0 402L0 491L85 422Z" fill="#59093a" stroke="#59093a"></path><path d="M0 491L63 600L113 478Z" fill="#c62368" stroke="#c62368"></path><path d="M765 88L635 63L681 132Z" fill="#a91c5e" stroke="#a91c5e"></path><path d="M765 88L691 0L635 63Z" fill="#730f47" stroke="#730f47"></path><path d="M635 63L691 0L579 0Z" fill="#9b1859" stroke="#9b1859"></path><path d="M68 0L0 0L0 112Z" fill="#8e1553" stroke="#8e1553"></path><path d="M814 160L681 132L667 174Z" fill="#41042c" stroke="#41042c"></path><path d="M814 160L667 174L712 267Z" fill="#a91c5e" stroke="#a91c5e"></path><path d="M827 399L818 334L677 411Z" fill="#b81f63" stroke="#b81f63"></path><path d="M818 334L814 160L712 267Z" fill="#730f47" stroke="#730f47"></path><path d="M569 600L700 600L609 481Z" fill="#b81f63" stroke="#b81f63"></path><path d="M710 460L827 399L677 411Z" fill="#9b1859" stroke="#9b1859"></path><path d="M0 491L0 600L63 600Z" fill="#41042c" stroke="#41042c"></path><path d="M783 530L827 399L710 460Z" fill="#8e1553" stroke="#8e1553"></path><path d="M818 334L900 292L814 160Z" fill="#730f47" stroke="#730f47"></path><path d="M700 600L783 530L710 460Z" fill="#a91c5e" stroke="#a91c5e"></path><path d="M900 390L818 334L827 399Z" fill="#59093a" stroke="#59093a"></path><path d="M900 390L900 292L818 334Z" fill="#9b1859" stroke="#9b1859"></path><path d="M700 600L797 600L783 530Z" fill="#4d0633" stroke="#4d0633"></path><path d="M900 533L900 390L827 399Z" fill="#4d0633" stroke="#4d0633"></path><path d="M900 107L833 0L765 88Z" fill="#a91c5e" stroke="#a91c5e"></path><path d="M765 88L833 0L691 0Z" fill="#4d0633" stroke="#4d0633"></path><path d="M900 107L765 88L814 160Z" fill="#80124d" stroke="#80124d"></path><path d="M900 292L900 176L814 160Z" fill="#41042c" stroke="#41042c"></path><path d="M900 533L827 399L783 530Z" fill="#4d0633" stroke="#4d0633"></path><path d="M900 176L900 107L814 160Z" fill="#730f47" stroke="#730f47"></path><path d="M797 600L900 533L783 530Z" fill="#730f47" stroke="#730f47"></path><path d="M900 107L900 0L833 0Z" fill="#9b1859" stroke="#9b1859"></path><path d="M797 600L900 600L900 533Z" fill="#8e1553" stroke="#8e1553"></path></g></svg>